<svg width="512pt" height="512pt" viewBox="-26 0 512 512" xmlns="http://www.w3.org/2000/svg">
<path d="m457.09 68.828-21.879-19.266 21.879-19.262c3.4023-3 4.5664-7.6758 2.9688-11.918-1.6055-4.2461-5.5703-6.9883-10.105-6.9883h-90.539v-3.8906c0-4.1445-3.3594-7.5039-7.5039-7.5039s-7.5039 3.3594-7.5039 7.5039v101.2l-61.629 33.465c-0.33984-2.7109-1.1523-5.375-2.4375-7.8828l-8.6836-16.953c-5.9609-11.641-20.281-16.254-31.914-10.297l-6.7148 3.4375c-5.6406 2.8906-9.8164 7.7969-11.762 13.828-1.9453 6.0273-1.4258 12.453 1.4648 18.09l8.6836 16.957c2.0273 3.957 5.0234 7.0898 8.5469 9.2852-4.6094 6.207-6.7969 13.84-9.0469 21.77l-1.6172 5.7266c-1.1289 3.9883 1.1914 8.1367 5.1797 9.2617 0.67969 0.19531 1.3672 0.28516 2.043 0.28516 3.2734 0 6.2812-2.1562 7.2188-5.4648l1.6172-5.7148c3.2891-11.598 5.3086-17.809 11.738-21.301l11.527-6.2617 1.4219-0.72656c0.47266-0.24219 0.91406-0.51563 1.3633-0.78516l82.156-44.613c-0.51953 10.27-6.0469 19.973-15.148 25.5l-53.426 32.461c-0.0625 0.035156-0.125 0.070312-0.18359 0.10937l-16.629 10.102c-3.5391 2.1523-4.668 6.7695-2.5156 10.312 2.0273 3.3398 6.2461 4.5273 9.6875 2.8516l-12.617 38.141-9.2227 3.7812-25.078 10.277 7.2266-25.547c1.125-3.9883-1.1914-8.1367-5.1797-9.2656-3.9922-1.1328-8.1367 1.1914-9.2656 5.1797l-11.418 40.379c-0.14844 0.51953-0.24609 1.0898-0.26953 1.6328l-2.9883 54.891c-0.089844 2.0938 0.35547 6.0508-0.61328 8.0938l-33.188 69.82h-24.117c-14.129 0-25.621 11.492-25.621 25.617v21.66c-3.2344-1.4805-6.8242-2.3086-10.609-2.3086h-61.246c-14.125 0-25.617 11.488-25.617 25.617v26.875h-18.016c-4.1445 0-7.5039 3.3594-7.5039 7.5039 0 4.1445 3.3594 7.5039 7.5039 7.5039h442.44c4.1445 0 7.5039-3.3594 7.5039-7.5039 0-4.1445-3.3594-7.5039-7.5039-7.5039h-19.516v-193.42c0-14.125-11.492-25.617-25.617-25.617h-45.398v-130.91c8.3203-11.277 11.402-26.059 7.5391-40.105-0.60547-2.207-2.1875-4.0195-4.2969-4.9141-1.0352-0.44141-2.1445-0.63672-3.2422-0.59375v-13.699h90.535c4.5391 0 8.5039-2.7422 10.105-6.9844 1.6016-4.2422 0.4375-8.9219-2.9648-11.922zm-221.54 60.086c0.71484-2.2148 2.2461-4.0195 4.3164-5.0781l6.7148-3.4375c1.2656-0.64844 2.6172-0.95703 3.9531-0.95703 3.1641 0 6.2227 1.7305 7.7617 4.7344l8.6875 16.957c2.0273 3.9609 0.71484 8.7617-2.8906 11.188l-2.4453 1.3242-5.1602 2.6445c-4.2695 2.1875-9.5273 0.49219-11.715-3.7812l-8.6875-16.953c-1.0586-2.0703-1.25-4.4297-0.53516-6.6406zm-15.078 272.93c-2.5508-1.1641-5.3242-1.9258-8.2383-2.1953l8.2383-10.941zm35.629-60.465c3.6094-4.3242 4.6055-9.375 5.4102-13.445 0.20313-0.96875 3.9062-21.195 3.9062-21.195s3.5039 2.1836 3.8711 2.3398c0.25391 0.11328 0.43359 0.36328 0.46094 0.65625l4.082 41.496h-25.148zm44.375-41.418-6.3359 51.234h-5.2305l-4.2227-42.93c-0.53906-5.5-3.9062-10.301-8.8398-12.688l-7.5469-4.7852 5.0273-27.863s21.18 25.16 21.672 25.801c4.3828 5.6992 5.8828 7.9805 5.4766 11.23zm-81.055 36.316c1.5156-4.5625 2.2188-9.207 2.1016-13.93l2.7266-50.062 34.707-14.223-6.3086 34.945c-0.019531 0.09375-0.039062 0.19141-0.050781 0.28516l-5.2188 28.895c-0.67969 2.9922-1.2734 7.5312-3.1406 9.9961l-50.707 67.352h-4.1797zm-178.89 133.84c0-5.8477 4.7578-10.605 10.609-10.605h61.246c5.8516 0 10.613 4.7578 10.613 10.605v26.879h-82.469zm97.473 0v-44.965c0-5.8516 4.7617-10.609 10.613-10.609h61.246c5.8516 0 10.609 4.7578 10.609 10.609v71.844h-82.465v-26.879zm277.42-166.54v193.42h-82.465v-44.992c0-4.1445-3.3594-7.5039-7.5039-7.5039-4.1484 0-7.5078 3.3594-7.5078 7.5039v44.992h-82.465v-120.15c0-5.8477 4.7578-10.605 10.609-10.605h61.246c5.8516 0 10.609 4.7578 10.609 10.605v37.617c0 4.1445 3.3594 7.5039 7.5039 7.5039 4.1484 0 7.5039-3.3594 7.5039-7.5039v-110.88c0-5.8516 4.7617-10.609 10.613-10.609h8.2656c0.023437 0 0.050781 0.003906 0.078125 0.003906 0.023438 0 0.050781-0.003906 0.074219-0.003906h52.824c5.8516 0 10.613 4.7617 10.613 10.609zm-71.855-25.617c-14.125 0-25.617 11.492-25.617 25.617v49.961c-2.6875-1.2266-5.6172-2.0039-8.6992-2.2305l6.1211-49.5c1.2031-9.6484-3.7188-16.043-8.4766-22.23-0.50391-0.65625-29.672-35.289-29.672-35.289l17.895-54.102 49.289-29.945v117.72zm15.848-205.23v-46.316h79.387l-17.098 15.055c-2.3281 2.0508-3.6641 5.0039-3.6641 8.1055 0 3.1016 1.3359 6.0547 3.6641 8.1055l17.098 15.055h-79.387z"/>
</svg>